<svg width="21" height="21" viewBox="0 0 21 21" fill="none" xmlns="http://www.w3.org/2000/svg">
<rect x="0.5" y="0.0117188" width="20" height="20" rx="10" fill="black"/>
<path d="M16.125 14.2921C16.125 14.4098 16.0746 14.478 16.0448 14.5082C15.0868 15.4661 13.6607 15.8312 12.0285 15.5381C10.4275 15.2501 8.81367 14.3587 7.48257 13.0286C5.84994 11.3953 4.875 9.29924 4.875 7.42131C4.875 6.22622 5.26422 5.20524 6.00023 4.46827C6.03025 4.4378 6.09871 4.38695 6.21712 4.38672C6.34796 4.38672 6.74562 4.38648 8.29244 5.93166C8.89246 6.53155 9.01837 7.06981 9.01837 7.41615C9.01837 7.74304 8.90676 8.04228 8.71191 8.23725C8.47861 8.47111 8.16137 8.56719 7.85421 8.51563C7.77261 9.5324 8.21905 10.6352 9.04674 11.4649C9.87747 12.2942 10.9851 12.7357 11.9966 12.6558C11.9434 12.3455 12.0431 12.0283 12.2637 11.8085C12.6264 11.4459 13.3957 11.0321 14.5815 12.2171C16.125 13.7621 16.125 14.1609 16.125 14.2921Z" fill="white"/>
</svg>
