<?xml version="1.0" encoding="utf-8"?>
<!-- Generator: Adobe Illustrator 21.0.0, SVG Export Plug-In . SVG Version: 6.00 Build 0)  -->
<svg version="1.1" id="Layer_1" xmlns="http://www.w3.org/2000/svg" xmlns:xlink="http://www.w3.org/1999/xlink" x="0px" y="0px"
	 viewBox="0 0 900 900" style="enable-background:new 0 0 900 900;" xml:space="preserve">
<style type="text/css">
	.st0{fill:#01918C;}
	.st1{fill:#FFFFFF;}
	.st2{fill:#D48431;}
	.st3{fill:#060606;}
	.st4{fill:#F5B828;}
	.st5{fill:#070403;}
	.st6{fill:#328DDD;}
	.st7{fill:#EA8932;}
	.st8{fill:#8A9298;}
	.st9{fill:#134A9F;}
	.st10{fill:#308BE3;}
	.st11{fill:#FF0000;}
	.st12{fill:#E12728;}
	.st13{fill:none;}
	.st14{fill:#D61921;}
	.st15{fill:#C6C7C9;}
	.st16{fill:#020202;}
	.st17{fill:#FEFEFE;}
</style>
<circle class="st9" cx="451" cy="450" r="444"/>
<circle class="st1" cx="463" cy="450" r="432.1"/>
<g>
	<path class="st9" d="M130.8,431.1H143v6.5c2-2.4,4.7-4.2,8.1-5.4c3.4-1.2,9.1-1.8,17-1.8c10.6,0,18.2,0.8,23,2.4
		c4.8,1.6,8.1,4.1,10,7.4c1.6-3.2,4.6-5.6,9.1-7.3c4.5-1.7,11.4-2.5,20.7-2.5c8.8,0,15.5,0.6,20,1.7c4.5,1.2,8.1,3.3,11,6.3
		c2.1,2.4,3.5,5.1,4.1,8c0.6,2.9,1,8.1,1,15.6v34.2h-12.1v-36.6c0-7.7-1.1-12.7-3.3-14.9c-3-2.9-9.9-4.3-20.7-4.3
		c-6.3,0-11.1,0.4-14.3,1.2c-3.2,0.8-5.6,2.2-7.2,4c-1.7,2-2.8,4.6-3.4,8s-0.9,8.9-0.9,16.7v25.8h-12.1v-36.6c0-4.5-0.2-7.8-0.7-9.9
		c-0.5-2.1-1.3-3.7-2.6-4.8c-3-3-10-4.4-20.8-4.4c-6.4,0-11.2,0.4-14.5,1.2c-3.3,0.8-5.8,2.2-7.6,4.2c-1.5,1.7-2.5,4.2-3.1,7.3
		c-0.5,3.1-0.8,8.8-0.8,17.2v25.8h-12.1V431.1z"/>
	<path class="st9" d="M316.3,430.3c10.1,0,17.6,0.3,22.5,0.9c4.9,0.6,8.7,1.7,11.5,3.4c4.3,2.6,7.3,6.2,9.1,10.7
		c1.8,4.5,2.8,10.7,2.8,18.4c0,8.6-1.1,15.1-3.3,19.6c-1.6,3.5-3.8,6.2-6.5,8.1c-2.7,2-6.3,3.4-10.8,4.3c-4.2,0.9-11.2,1.3-20.8,1.3
		c-9.1,0-16-0.3-20.7-0.9c-4.7-0.6-8.6-1.7-11.6-3.4c-4.4-2.4-7.6-5.8-9.5-10.4c-1.9-4.6-2.8-10.9-2.8-19c0-9.1,1.3-15.9,4-20.6
		c2.8-4.9,6.6-8.2,11.6-9.9C296.7,431.2,304.9,430.4,316.3,430.3z M318,440.6c-6.6,0-11.6,0.2-14.9,0.7c-3.3,0.5-5.8,1.3-7.7,2.5
		c-2.2,1.4-3.8,3.8-4.9,7c-1.1,3.2-1.6,7.6-1.6,13.3c0,6.4,0.7,11.1,2.1,14.2c1.4,3.1,3.7,5.2,6.9,6.5c3.7,1.4,11.1,2.2,22.1,2.2
		c7.2,0,12.4-0.3,15.7-0.8c3.3-0.5,5.9-1.5,7.8-2.9c2.1-1.5,3.6-3.7,4.6-6.8c0.9-3,1.4-7.4,1.4-13c0-6.7-0.7-11.5-2.2-14.6
		c-1.6-3.3-4.3-5.5-8.1-6.6C335.4,441.1,328.3,440.6,318,440.6z"/>
	<path class="st9" d="M372.3,403.2h12.1v35.6h-1c2.2-3.3,5.3-5.6,9.2-6.7c4-1.2,10.5-1.7,19.7-1.7c10.6,0,18.2,0.3,22.8,1
		c4.5,0.7,8.3,2.1,11.3,4.2c3.7,2.6,6.3,6,7.9,9.9c1.7,4.5,2.6,10.8,2.6,19.1c0,9.1-1.4,16-4.1,20.6c-3.7,6.2-10.3,9.9-19.9,11.2
		c-3.9,0.5-10.2,0.7-18.8,0.7c-10.3,0-17.5-0.6-21.5-1.7c-4-1.2-7.2-3.6-9.5-7.2h1.1v8.1h-12V403.2z M412.5,440.6
		c-6.6,0-11.5,0.3-14.8,0.8c-3.3,0.5-5.8,1.4-7.6,2.7c-2.2,1.5-3.8,3.8-4.7,6.8c-0.9,3-1.4,7.4-1.4,13c0,7.5,0.8,12.7,2.4,15.5
		c1.7,3,4.6,5.1,8.5,6.1c3.9,1,11.5,1.5,22.7,1.5c5.8,0,10.2-0.3,13.2-0.8c3-0.6,5.6-1.6,7.7-3c1.9-1.3,3.3-3.5,4.2-6.5
		c0.9-3,1.4-7.2,1.4-12.6c0-7.3-0.8-12.5-2.5-15.6c-1.7-3.1-4.4-5.2-8.1-6.3C429.9,441.1,422.9,440.6,412.5,440.6z"/>
	<rect x="467" y="407.8" class="st12" width="12.1" height="13.3"/>
	<rect x="467" y="431.1" class="st9" width="12.1" height="65.1"/>
	<path class="st12" d="M482.1,431.1h9.5c0.2-5.9,0.6-10.3,1.2-13c0.6-2.8,1.8-5.2,3.6-7.3c2.3-2.6,5.4-4.5,9.1-5.5
		c3.8-1.1,9.7-1.7,17.7-2l13.8-0.4l-14,10.4c-5.2,0.2-9,0.5-11.2,1c-2.3,0.5-4,1.4-5.2,2.7c-1,1.1-1.7,2.6-2.1,4.3s-0.6,5-0.7,9.8
		H536l-11.8,9.9h-20.4v55.2h-12.1v-55.2h-9.5V431.1z"/>
	<path class="st12" d="M565.6,430.3c10.1,0,17.6,0.3,22.5,0.9c4.9,0.6,8.7,1.7,11.5,3.4c4.3,2.6,7.3,6.2,9.1,10.7
		c1.8,4.5,2.8,10.7,2.8,18.4c0,8.6-1.1,15.1-3.3,19.6c-1.6,3.5-3.8,6.2-6.5,8.1c-2.7,2-6.3,3.4-10.8,4.3c-4.2,0.9-11.2,1.3-20.8,1.3
		c-9.1,0-16-0.3-20.7-0.9c-4.7-0.6-8.6-1.7-11.6-3.4c-4.4-2.4-7.6-5.8-9.5-10.4c-1.9-4.6-2.8-10.9-2.8-19c0-9.1,1.3-15.9,4-20.6
		c2.8-4.9,6.6-8.2,11.6-9.9C546,431.2,554.2,430.4,565.6,430.3z M567.2,440.6c-6.6,0-11.6,0.2-14.9,0.7c-3.3,0.5-5.8,1.3-7.7,2.5
		c-2.2,1.4-3.8,3.8-4.9,7c-1.1,3.2-1.6,7.6-1.6,13.3c0,6.4,0.7,11.1,2.1,14.2c1.4,3.1,3.7,5.2,6.9,6.5c3.7,1.4,11.1,2.2,22.1,2.2
		c7.2,0,12.4-0.3,15.7-0.8c3.3-0.5,5.9-1.5,7.8-2.9c2.1-1.5,3.6-3.7,4.6-6.8c0.9-3,1.4-7.4,1.4-13c0-6.7-0.7-11.5-2.2-14.6
		c-1.6-3.3-4.3-5.5-8.1-6.6C584.6,441.1,577.6,440.6,567.2,440.6z"/>
	<path class="st12" d="M621.1,431.1h12.1v9.6h-0.9c2.1-3.9,5.4-6.7,10-8.2c4.6-1.5,12.2-2.3,22.9-2.3c9.2,0,16.1,0.5,20.7,1.6
		c4.6,1.1,8.2,3,10.9,5.7c2,2.2,3.4,4.9,4.2,8.1c0.8,3.2,1.2,7.8,1.2,13.8v36.7h-12.1v-32.4c0-5.7-0.2-9.7-0.7-12.2
		c-0.5-2.4-1.4-4.4-2.7-6.1c-1.6-1.8-4-3.1-7.4-3.9c-3.3-0.8-8.5-1.2-15.4-1.2c-7.7,0-13.6,0.5-17.8,1.6c-4.2,1.1-7.3,2.9-9.4,5.3
		c-1.4,1.8-2.4,3.9-2.9,6.2c-0.5,2.3-0.7,6.4-0.7,12.4v30.2h-12.1V431.1z"/>
	<path class="st12" d="M782.6,475.2h12.5c-0.2,8.2-3,13.9-8.4,17.1c-5.4,3.2-14.7,4.7-27.8,4.7c-10.7,0-18.9-0.4-24.6-1.3
		c-5.7-0.9-10-2.3-13-4.4c-6.6-4.7-9.9-13.9-9.9-27.6c0-9.5,1.4-16.7,4.2-21.5c2.7-4.7,6.6-7.9,11.7-9.5c5.1-1.7,13.5-2.5,25.1-2.5
		c11.1,0,19.1,0.6,24.2,1.8c5.1,1.2,9.1,3.5,12.2,7c2.5,2.9,4.2,6.2,5.1,9.9c0.9,3.7,1.4,9.6,1.5,17.6h-71.1
		c0.3,7.4,1.8,12.5,4.6,15.3c1.7,1.8,4.7,3.1,8.7,3.8c4.1,0.7,10.8,1.1,20.3,1.1c7.1,0,12.3-0.3,15.5-1c3.2-0.6,5.5-1.8,7-3.4
		C781.4,481.2,782.2,478.8,782.6,475.2z M782,456.7c0-5.6-1.6-9.6-4.7-12c-2-1.5-4.9-2.6-8.6-3.2c-3.7-0.6-9.3-0.9-16.7-0.9
		c-6.5,0-11.3,0.3-14.6,0.9c-3.3,0.6-5.8,1.6-7.6,3c-3,2.4-4.7,6.5-5.2,12.3H782z"/>
</g>
</svg>
