<?xml version="1.0" encoding="utf-8"?>
<!-- Generator: Adobe Illustrator 21.0.0, SVG Export Plug-In . SVG Version: 6.00 Build 0)  -->
<svg version="1.1" id="Layer_1" xmlns="http://www.w3.org/2000/svg" xmlns:xlink="http://www.w3.org/1999/xlink" x="0px" y="0px"
	 viewBox="0 0 900 900" style="enable-background:new 0 0 900 900;" xml:space="preserve">
<style type="text/css">
	.st0{fill:#01918C;}
	.st1{fill:#FFFFFF;}
	.st2{fill:#D48431;}
	.st3{fill:#060606;}
	.st4{fill:#F5B828;}
	.st5{fill:#070403;}
	.st6{fill:#328DDD;}
	.st7{fill:#EA8932;}
	.st8{fill:#8A9298;}
	.st9{fill:#134A9F;}
	.st10{fill:#308BE3;}
	.st11{fill:#FF0000;}
	.st12{fill:#E12728;}
	.st13{fill:none;}
	.st14{fill:#D61921;}
	.st15{fill:#C6C7C9;}
	.st16{fill:#020202;}
	.st17{fill:#FEFEFE;}
</style>
<circle class="st0" cx="451" cy="450" r="444"/>
<circle class="st1" cx="463" cy="450" r="432.1"/>
<g>
	<path class="st0" d="M164.1,396.2c4.1-5.4,8.4-10.1,12.8-14.6c31.3-32.4,68.4-56,109.6-73.6C320.1,293.6,355,284,391,278.5
		c28-4.3,56.2-6.3,84.6-5.6c68,1.7,132.9,16,193.6,47.3c29.8,15.3,56.9,34.4,80.5,58.3c0.8,0.8,2,1.4,2,2.8c-1,0.3-1.4-0.4-1.9-0.9
		c-26.7-22.6-57.6-36.5-91.2-45.2c-28.7-7.5-58-10.3-87.6-9c-42.1,1.8-82.3,11.1-119.7,31.2c-18.1,9.7-34.4,21.8-48.2,37.1
		c-1.1,1.2-2.1,1.9-3.9,1.9c-77.8,0-155.5,0-233.3,0C165.5,396.3,165.1,396.3,164.1,396.2z"/>
	<path class="st2" d="M765.2,503.8c-8.8,10.8-18,20.3-27.9,29c-42.1,37.5-91.3,61.7-145.1,77c-29,8.3-58.7,13.4-88.8,15.8
		c-21,1.7-42,2.1-63,1c-29.6-1.5-58.8-5.6-87.7-12.6c-41.5-10.1-80.8-25.6-117.2-48.3c-19.9-12.4-38.3-26.6-54.8-43.2
		c-0.9-0.9-2.1-1.6-2.3-3c0.8-0.6,1.2,0,1.7,0.4c27.6,23.1,59.6,37.1,94.2,45.5c30.2,7.4,60.9,9.8,92,7.7c41.6-2.9,81.2-13,117.5-34
		c15.7-9.1,29.9-20,42.1-33.5c1.2-1.4,2.5-2.1,4.4-2.1c77.5,0.1,155.1,0,232.6,0C763.4,503.8,764,503.8,765.2,503.8z"/>
	<path class="st0" d="M672.8,477.2c-24.9,0-49.9,0-74.8,0c-1.8,0-3.7,0-5.5-0.2c-4.8-0.7-6.8-3.1-6.8-7.9c0-5.4,0.1-10.8,0-16.3
		c-0.1-6-3.8-10.5-9.8-10.9c-6.7-0.4-13.4-0.4-20.2-0.1c-5.8,0.3-10.5,5.8-10.5,11.7c0,5.4-0.1,10.8,0,16.3c0.1,2.4-1,4-3.1,4.8
		c-8.5,3.3-17.1,3.7-25.7,0.5c-2.7-1-4-2.9-3.9-6c0.2-5.4,0.1-10.8,0.1-16.3c0-6.2-3.2-10.3-9.4-10.8c-9.6-0.8-19.3-0.7-28.9,0
		c-6.1,0.4-10,5.1-10.1,11.2c-0.1,5.3-0.1,10.6,0,15.9c0.1,2.6-0.9,4.4-3.2,5.5c-9,3.9-17.9,3.6-26.7-0.4c-2-0.9-2.7-2.5-2.7-4.7
		c0.1-5.2,0.1-10.4,0-15.6c0-7.3-3.3-11-10.6-11.8c-1.8-0.2-3.7-0.3-5.5-0.3c-25.6,0-51.2,0-76.8,0c-1.1,0-3-1.1-3.1,1.5
		c-0.1,2.2,0.8,3.6,3,3.9c1.9,0.2,3.9,0.3,5.8,0.3c12.7,0,25.4,0,38.1,0.1c1.3,0,3.2-1,3.8,1.1c0.9,3.1-0.2,6.4-2.4,7.4
		c-1.8,0.8-3.8,0.9-5.7,0.9c-12.8,0-25.6,0-38.4,0.1c-1.4,0-3.7-1.4-4.1,1.5c-0.6,3.8,0.6,6.5,3.3,7.3c1.9,0.6,3.8,0.6,5.8,0.6
		c14.3,0,28.6,0,43,0c1.4,0,3.5-1,4,0.8c0.6,2.2,0.7,4.8-1.6,6.6c-3,2.4-6.5,3.3-10.3,3.3c-18.5,0-37.1,0-55.6,0
		c-4.6,0-9.3,0.5-13.9-0.6c-5.7-1.3-7-2.9-7-8.6c0-10.1,0-20.2,0-30.3c0-5.2,1.7-7.1,6.8-7.6c1.8-0.2,3.7-0.2,5.5-0.2
		c36.4,0,72.9,0,109.3,0c5.6,0,5.9-0.3,7-5.8c0.4-2,1.7-3,3.3-3.6c8.1-3,16.3-3.4,24.5-0.6c2.7,0.9,4.7,2.6,4.9,5.8
		c0.2,2.8,1.9,4.2,4.8,4.2c12.8,0,25.6,0,38.4,0c3.1,0,4.7-1.6,4.9-4.5c0.2-2.5,1.3-4.1,3.5-4.9c8.1-3,16.3-3.5,24.5-0.6
		c2.6,0.9,4.7,2.4,4.8,5.8c0.1,2.9,2.1,4.2,5.1,4.2c7.8-0.1,15.6,0,23.4,0c31.8,0,63.6,0,95.3,0c1.2,0,2.9-1,3.6,1
		c0.9,2.6-0.1,6.3-1.9,7.2c-3.1,1.5-6.4,1.9-9.8,1.9c-13.1,0-26.2,0-39.4,0.1c-1.2,0-3.3-1.2-3.5,1.5c-0.1,2.4,0,4.8,2.9,5.4
		c1.9,0.4,3.9,0.4,5.8,0.5c12.7,0,25.4,0,38.1,0.1c1.3,0,3.4-1.4,3.9,1.4c0.7,4.1-0.2,6.5-2.8,7.5c-1.5,0.6-3,0.5-4.5,0.6
		c-13.1,0-26.2,0-39.4,0.1c-1.4,0-3.7-1.4-4.1,1.6c-0.6,4.1,0.6,6.8,3.5,7.4c1.5,0.3,3,0.5,4.5,0.5c16.8,0,33.6,0,50.4,0.1
		c2.2,0,3-0.6,3-2.9c-0.1-8.7-0.1-17.4,0-26c0-4.7,1.2-6.4,5.8-7.1c7.1-1,14.3-1.3,21.3,0.9c4.7,1.5,5.4,2.7,5.4,7.5
		c0,5.7,0,11.5,0,17.2c0.1,6.7,2.4,9.2,9.3,9.2c12.3,0.1,24.5,0,36.8,0.1c1.4,0,3.9-1,4.2,0.9c0.5,2.6,1.2,5.7-1.6,7.8
		c-2.7,2-5.8,2.9-9.1,2.9c-7.3,0.1-14.5,0.1-21.8,0.1C710.7,477.2,691.8,477.2,672.8,477.2z"/>
	<path class="st0" d="M261.5,446c-5.7,6.9-11.7,13.6-17,20.8c-4.5,6.1-10.1,9.2-17.4,9.9c-8.5,0.9-16.9,0.9-25.1-2
		c-3.5-1.2-6.3-3.1-8.7-5.9c-10-12.1-20.2-24.1-30.3-36.2c-0.6-0.7-1.2-1.5-2.2-2.8c10.6,0.5,20.7-1.1,30.5,1.8
		c4,1.2,7.1,3.4,9.5,6.9c5.2,7.8,10.6,15.3,15.9,23c1.3,1.9,2,2.3,3.4,0.1c5.3-8,10.8-15.7,16.1-23.7c2.8-4.2,6.5-7,11.3-7.4
		c13.3-1.1,26.6-1.4,39.9,0.4c1.2,0.2,2.3,0.7,3.4,1.1c2.7,1,4,2.8,4,5.9c-0.2,10.4-0.1,20.8,0,31.2c0,2.7-0.9,4.4-3.2,5.4
		c-8.3,3.4-16.6,3.6-25.1,0.8c-3-1-4.4-3.1-4.3-6.4c0.2-7.6,0.1-15.1,0.1-22.7C261.9,446.1,261.7,446,261.5,446z"/>
	<path class="st2" d="M176.6,518.2c-1.1-0.7-2-1.5-2.5-2.7l0,0c1.6,0,2.2,1.4,3.1,2.3C177,517.9,176.8,518.1,176.6,518.2z"/>
	<path class="st2" d="M171.5,512.9c-0.1-0.1-0.1-0.1-0.2-0.2c0,0,0-0.1,0-0.1C171.3,512.7,171.4,512.8,171.5,512.9L171.5,512.9z"/>
	<path class="st2" d="M171.4,513c0.5-0.1,0.7,0.1,0.7,0.6l0,0C172,513.3,171.7,513.1,171.4,513L171.4,513z"/>
	<path class="st2" d="M172.1,513.6c0.5-0.1,0.7,0.1,0.7,0.7l0-0.1C172.6,513.9,172.4,513.7,172.1,513.6L172.1,513.6z"/>
	<path class="st2" d="M172.8,514.2c0.5-0.1,0.8,0.1,0.7,0.7l0-0.1C173.3,514.6,173.1,514.4,172.8,514.2L172.8,514.2z"/>
	<path class="st2" d="M174.1,515.5c-0.4,0-0.6-0.2-0.6-0.7l0,0.1C174,514.7,174.2,515,174.1,515.5L174.1,515.5z"/>
	<path class="st2" d="M177.2,517.8c0.2,0.3,0.6,0.6,0.1,0.9c-0.1,0.1-0.4-0.3-0.6-0.5C176.8,518.1,177,517.9,177.2,517.8z"/>
</g>
</svg>
