<?xml version="1.0" encoding="utf-8"?>
<!-- Generator: Adobe Illustrator 21.0.0, SVG Export Plug-In . SVG Version: 6.00 Build 0)  -->
<svg version="1.1" id="Layer_1" xmlns="http://www.w3.org/2000/svg" xmlns:xlink="http://www.w3.org/1999/xlink" x="0px" y="0px"
	 viewBox="0 0 900 900" style="enable-background:new 0 0 900 900;" xml:space="preserve">
<style type="text/css">
	.st0{fill:#01918C;}
	.st1{fill:#FFFFFF;}
	.st2{fill:#D48431;}
	.st3{fill:#060606;}
	.st4{fill:#F5B828;}
	.st5{fill:#070403;}
	.st6{fill:#328DDD;}
	.st7{fill:#EA8932;}
	.st8{fill:#8A9298;}
	.st9{fill:#134A9F;}
	.st10{fill:#308BE3;}
	.st11{fill:#FF0000;}
	.st12{fill:#E12728;}
	.st13{fill:none;}
	.st14{fill:#D61921;}
	.st15{fill:#C6C7C9;}
	.st16{fill:#020202;}
	.st17{fill:#FEFEFE;}
</style>
<circle class="st6" cx="451" cy="450" r="444"/>
<circle class="st1" cx="463" cy="450" r="432.1"/>
<g>
	<g>
		<path class="st10" d="M247,584.5L226.7,641H211l-20.2-56.5h16.5l11.7,41.6l12.1-41.6H247z"/>
		<path class="st10" d="M272.5,563.9v13.8h-14.9v-13.8H272.5z M257.6,584.5h14.9V641h-14.9V584.5z"/>
		<path class="st10" d="M339.4,601.9V641h-14.9v-34.4c0-3.1-0.4-5.4-1.2-7c-1.5-2.7-4.2-4-8.3-4c-3.4,0-6.2,1.1-8.4,3.4
			c-2.2,2.3-3.3,5.5-3.3,9.5V641h-14.9v-56.5h14.2v8.3c1.7-2.7,3.5-4.7,5.3-6.2c3.2-2.4,7.1-3.6,11.9-3.6c5.8,0,10.4,1.6,13.9,4.7
			C337.5,591.1,339.4,595.8,339.4,601.9z"/>
		<path class="st10" d="M402.1,638.7v2.3h-14c0-3.8,0,0,0-3.8c0-0.6,0-1.6,0-3c-2.3,2.4-4.5,4.2-6.6,5.4c-3.4,1.9-7.3,2.9-11.7,2.9
			c-4.7,0-8.7-1.3-11.8-3.8c-3.6-3-5.4-7.2-5.4-12.7c0-5.2,1.6-9.4,4.7-12.6c2.8-2.8,6.6-4.6,11.7-5.4l13.4-1.9
			c2-0.3,3.4-0.9,4.2-1.6c0.8-0.7,1.2-1.7,1.2-2.9c0-2.8-1.1-4.6-3.4-5.6c-1.5-0.7-3.6-1-6.4-1c-3.3,0-5.7,0.9-7.2,2.6
			c-1,1.1-1.6,2.9-1.9,5.2h-14.4c0.8-7.9,3.7-13.3,8.9-16.4c3.8-2.2,9.2-3.4,16.3-3.4c5.7,0,10.5,0.9,14.3,2.8
			c5.5,2.8,8.2,7.3,8.2,13.5V630 M387.7,620.6v-7.2c-0.8,0.7-1.9,1.3-3.3,1.7c-1.4,0.4-3.7,0.9-6.9,1.4c-3.2,0.5-5.6,1.3-7,2.3
			c-2,1.3-3,3.4-3,6.3c0,2.3,0.8,4.1,2.3,5.3c1.3,1,2.8,1.5,4.5,1.5c3.5,0,6.5-1,9.3-3.1C386.3,626.7,387.7,624,387.7,620.6z"/>
		<path class="st10" d="M431.1,584.5v8.1c2-2.9,4-5.1,6-6.5c3-2,6.7-3.1,11.2-3.1c6.5,0,12,2.4,16.3,7.2c4.7,5.3,7.1,12.6,7.1,21.9
			c0,8.6-1.8,15.6-5.5,21c-4.3,6.3-10.3,9.4-18.2,9.4c-4.5,0-8.2-1.1-11.1-3.2c-1.6-1.1-3.1-3-4.8-5.5l-0.2,29.3h-14.9v-78.6H431.1z
			 M431.1,614.1c0,4.6,1,8.3,3,11.1c2.3,3.3,5.7,5,10.2,5c4.3,0,7.5-2,9.7-6c1.6-3,2.4-6.7,2.4-11c0-4.9-0.9-8.9-2.7-12
			c-2.2-3.6-5.5-5.4-9.8-5.4c-4.7,0-8,1.9-10.2,5.6C432,604.4,431.1,608.7,431.1,614.1z"/>
		<path class="st10" d="M536.4,601.9V641h-14.9v-34.4c0-3.1-0.4-5.4-1.2-7c-1.5-2.7-4.2-4-8.3-4c-3.4,0-6.2,1.1-8.4,3.4
			c-2.2,2.3-3.3,5.5-3.3,9.5V641h-14.9v-76.2h14.9v26.9c1-2.4,3.1-4.5,6.2-6.2c3.1-1.7,6.5-2.5,10.3-2.5c5.8,0,10.4,1.6,13.9,4.7
			C534.5,591.1,536.4,595.8,536.4,601.9z"/>
		<path class="st10" d="M608.3,612.8c0,9.7-2.9,17.2-8.7,22.5c-5.2,4.8-11.9,7.3-20.2,7.3c-8.1,0-14.8-2.4-20.1-7.3
			c-5.9-5.4-8.8-12.9-8.8-22.5c0-9.7,2.9-17.2,8.7-22.5c5.2-4.8,11.9-7.2,20.2-7.2c8.2,0,14.9,2.4,20.2,7.2
			C605.4,595.6,608.3,603.1,608.3,612.8z M593,612.8c0-4.7-0.8-8.4-2.4-11.2c-2.2-4-6-6-11.1-6c-5.1,0-8.8,2-11,5.9
			c-1.7,3-2.5,6.8-2.5,11.3c0,4.7,0.8,8.4,2.4,11.2c2.3,4,6,6,11.1,6c5.1,0,8.8-2,11-5.9C592.2,621.1,593,617.4,593,612.8z"/>
		<path class="st10" d="M669,601.9V641h-14.9v-34.4c0-3.1-0.4-5.4-1.2-7c-1.5-2.7-4.2-4-8.3-4c-3.4,0-6.2,1.1-8.4,3.4
			c-2.2,2.3-3.3,5.5-3.3,9.5V641h-14.9v-56.5h14.2v8.3c1.7-2.7,3.5-4.7,5.3-6.2c3.2-2.4,7.1-3.6,11.9-3.6c5.8,0,10.4,1.6,13.9,4.7
			C667.1,591.1,669,595.8,669,601.9z"/>
		<path class="st10" d="M719.3,624.5h15.3c-1.8,6.3-5.2,11-10.2,14.1c-4.2,2.6-9.1,3.9-14.6,3.9c-8.6,0-15.3-2.2-19.9-6.7
			c-5.4-5.2-8.1-13.3-8.1-24.3c0-8.9,2.5-16,7.5-21.2c4.7-4.8,11.2-7.2,19.4-7.2c7.1,0,12.9,1.9,17.4,5.8c6.1,5.3,9.1,13.6,9.1,25.2
			v2.7h-38.6c0.5,4.9,1.8,8.5,3.9,10.6c2.1,2.1,5.2,3.2,9.2,3.2c2.2,0,4.3-0.5,6.1-1.6C717.7,627.9,718.8,626.4,719.3,624.5z
			 M697,607.1h22.9c-0.4-4.2-1.8-7.3-4.1-9.4c-2-1.7-4.4-2.5-7.3-2.5C701.8,595.1,697.9,599.1,697,607.1z"/>
	</g>
	<path class="st6" d="M385.9,256c-10-12.2-36.7-29.5-67.7-10.9c-10.3,6.2-47.4,48.3-9.8,91.2c16.6,15.5,34.3,13.2,69.5,16
		c10.4,0.8,83.9,20.5,81.6,67.5c0.9,13.2,4.2,40.4-23.3,45.1c-22.8,3.9-58.6,23.3-29.2,59.7c6.4,8.9,43.9,22.7,53-14.6
		c4.1-16.8-6.1-51.1,16.7-53.4c22.8-2.3,51.5,5.5,61.6-36c5.9-25.5,15.5-53.8,42.4-65.7c12.6-2.8,16.6,1.6,53.4-6.6
		c7.7-3.5,44.7-25.1,23.7-71.4c-5.8-10.7-32.2-42.4-67.5-18.9c-6.8,4.3-19.2,19.8-20.5,49c-2.3,18.2-10,73.9-77.1,75.2
		c-17.8-2.3-60-12.3-83.5-69.3C396.6,277,392.3,263.9,385.9,256z"/>
</g>
</svg>
