<svg width="24" height="24" viewBox="0 0 24 24" fill="none" xmlns="http://www.w3.org/2000/svg">
<path fill-rule="evenodd" clip-rule="evenodd" d="M0.599609 10.9351C0.599609 5.09442 5.70356 0.359375 11.9996 0.359375C18.2957 0.359375 23.3996 5.09442 23.3996 10.9351C23.3996 16.7759 18.2957 21.5109 11.9996 21.5109C10.9059 21.5109 9.84806 21.3678 8.84678 21.101L5.28659 23.1244C5.11133 23.224 4.89366 23.099 4.89139 22.8975L4.84532 19.1686C2.25617 17.23 0.599609 14.2624 0.599609 10.9351Z" fill="white"/>
<path d="M6.08749 13.4982C6.84449 13.4982 7.55095 13.4939 8.25737 13.4999C8.65428 13.5033 8.86879 13.6726 8.90531 13.9859C8.95153 14.3826 8.72066 14.6457 8.29199 14.6506C7.48347 14.6598 6.6748 14.6541 5.86618 14.6541C5.63276 14.6541 5.39878 14.6623 5.16611 14.6488C4.87591 14.6321 4.59216 14.5746 4.45339 14.2745C4.31437 13.9738 4.41097 13.704 4.60302 13.4592C5.37572 12.4742 6.14942 11.4899 6.92258 10.5052C6.9685 10.4467 7.01288 10.387 7.0575 10.3285C7.01027 10.243 6.93533 10.2813 6.877 10.2809C6.33517 10.2775 5.79324 10.2814 5.25141 10.277C5.12759 10.276 5.00008 10.2661 4.88092 10.2348C4.62954 10.1687 4.47695 9.96696 4.47495 9.72642C4.47295 9.48542 4.62098 9.28128 4.87171 9.21043C4.99017 9.17693 5.11824 9.1653 5.242 9.1648C6.13397 9.16119 7.02598 9.16139 7.918 9.16435C8.07558 9.1649 8.23436 9.16891 8.38734 9.22186C8.72557 9.33895 8.87444 9.6514 8.73692 9.98225C8.61721 10.2704 8.42636 10.5153 8.23586 10.7583C7.58192 11.5925 6.92548 12.4248 6.27024 13.2581C6.21936 13.3228 6.17044 13.3891 6.08749 13.4982Z" fill="#0180C7"/>
<path d="M11.8923 10.8574C12.0141 10.7037 12.135 10.5589 12.341 10.5168C12.734 10.4366 13.1067 10.6925 13.1119 11.093C13.1251 12.0953 13.1202 13.0979 13.1142 14.1002C13.1126 14.374 12.9444 14.5839 12.6983 14.6677C12.4403 14.7556 12.1716 14.6916 11.9993 14.4736C11.9149 14.3669 11.8789 14.3486 11.7612 14.4442C11.3057 14.8144 10.7918 14.8792 10.2365 14.6986C9.34543 14.4088 8.97864 13.7129 8.88194 12.8606C8.77804 11.945 9.08209 11.1593 9.89967 10.6776C10.5783 10.2777 11.2679 10.3112 11.8923 10.8574ZM10.1239 12.6907C10.1287 12.8631 10.1854 13.0951 10.3343 13.2963C10.6581 13.7341 11.3225 13.7328 11.646 13.2954C11.9264 12.9163 11.9251 12.2873 11.6444 11.9086C11.496 11.7085 11.2979 11.6037 11.0507 11.5892C10.5023 11.5568 10.1183 11.9821 10.1239 12.6907Z" fill="#0180C7"/>
<path d="M15.3587 12.7176C15.3205 11.4299 16.1632 10.4679 17.3619 10.431C18.6356 10.3918 19.57 11.2502 19.608 12.5017C19.6466 13.7689 18.8709 14.6679 17.6749 14.7881C16.3756 14.9186 15.34 13.9697 15.3587 12.7176ZM16.6166 12.5964C16.6153 12.853 16.6756 13.0923 16.8299 13.3003C17.1461 13.7266 17.8037 13.73 18.1265 13.3096C18.4174 12.9306 18.4185 12.2866 18.1314 11.9035C17.9816 11.7038 17.7827 11.6008 17.5362 11.5877C16.9958 11.559 16.6189 11.9731 16.6166 12.5964Z" fill="#0180C7"/>
<path d="M14.9214 11.7208C14.9214 12.4977 14.9253 13.2745 14.9199 14.0513C14.9167 14.4957 14.5256 14.7961 14.1051 14.6896C13.8524 14.6257 13.6636 14.3571 13.6632 14.0441C13.6613 12.716 13.6623 11.3878 13.6623 10.0598C13.6623 9.82583 13.6591 9.5919 13.6632 9.35808C13.6699 8.97267 13.9147 8.72245 14.2826 8.71879C14.6627 8.71503 14.9176 8.96615 14.92 9.3653C14.9248 10.1505 14.9214 10.9357 14.9214 11.7208Z" fill="#0180C7"/>
</svg>
